HIERARCHY
ROOT newVegas:Hips
{
	OFFSET 0.000000 96.479958 0.000000
	CHANNELS 6 Xposition Yposition Zposition Xrotation Yrotation Zrotation
	JOINT newVegas:Pelvis
	{
		OFFSET 0.000000 0.000000 0.000000
		CHANNELS 3 Xrotation Yrotation Zrotation
		JOINT newVegas:LeftUpLeg
		{
			OFFSET 18.735201 -5.666702 -4.541200
			CHANNELS 3 Xrotation Yrotation Zrotation
			JOINT newVegas:LeftLeg
			{
				OFFSET -0.021200 -31.938179 0.493100
				CHANNELS 3 Xrotation Yrotation Zrotation
				JOINT newVegas:LeftFoot
				{
					OFFSET 0.021200 -31.938179 -4.336299
					CHANNELS 3 Xrotation Yrotation Zrotation
					JOINT newVegas:LeftToeBase
					{
						OFFSET 0.943001 -26.722000 15.023500
						CHANNELS 3 Xrotation Yrotation Zrotation
						End Site
						{
							OFFSET 0.000000 30.670183 0.000000
						}
					}
				}
				JOINT newVegas:Left_PantLeg
				{
					OFFSET 0.663870 -9.044666 -1.108900
					CHANNELS 3 Xrotation Yrotation Zrotation
					End Site
					{
						OFFSET 1.415995 20.635357 0.000000
					}
				}
			}
		}
		JOINT newVegas:RightUpLeg
		{
			OFFSET -18.735201 -5.666702 -4.541200
			CHANNELS 3 Xrotation Yrotation Zrotation
			JOINT newVegas:RightLeg
			{
				OFFSET 0.018946 -31.938133 0.493100
				CHANNELS 3 Xrotation Yrotation Zrotation
				JOINT newVegas:RightFoot
				{
					OFFSET -0.018946 -31.938126 -4.336299
					CHANNELS 3 Xrotation Yrotation Zrotation
					JOINT newVegas:RightToeBase
					{
						OFFSET -0.943001 -26.722004 15.023500
						CHANNELS 3 Xrotation Yrotation Zrotation
						End Site
						{
							OFFSET 0.000000 30.670187 0.000000
						}
					}
				}
				JOINT newVegas:Right_PantLeg
				{
					OFFSET -0.661674 -9.044716 -1.108900
					CHANNELS 3 Xrotation Yrotation Zrotation
					End Site
					{
						OFFSET -1.415958 20.635269 0.000000
					}
				}
			}
		}
	}
	JOINT newVegas:Spine
	{
		OFFSET 0.000000 10.199997 -0.299500
		CHANNELS 3 Xrotation Yrotation Zrotation
		JOINT newVegas:Spine1
		{
			OFFSET 0.000000 11.900002 -1.516600
			CHANNELS 3 Xrotation Yrotation Zrotation
			JOINT newVegas:Spine2
			{
				OFFSET 0.000000 13.600006 -2.842500
				CHANNELS 3 Xrotation Yrotation Zrotation
				JOINT newVegas:Neck
				{
					OFFSET 0.000000 9.624100 -2.890100
					CHANNELS 3 Xrotation Yrotation Zrotation
					JOINT newVegas:Head
					{
						OFFSET 0.000000 14.068802 -1.351900
						CHANNELS 3 Xrotation Yrotation Zrotation
						JOINT newVegas:Hair_Back
						{
							OFFSET 0.000000 3.231903 -17.524799
							CHANNELS 3 Xrotation Yrotation Zrotation
							End Site
							{
								OFFSET 0.000000 19.849884 0.000000
							}
						}
						JOINT newVegas:Hair_Front
						{
							OFFSET 0.000000 31.260406 4.573800
							CHANNELS 3 Xrotation Yrotation Zrotation
							JOINT newVegas:Hair_Front1
							{
								OFFSET 0.000000 2.284103 11.993300
								CHANNELS 3 Xrotation Yrotation Zrotation
								JOINT newVegas:Hair_Front2
								{
									OFFSET 0.000000 2.284103 11.993300
									CHANNELS 3 Xrotation Yrotation Zrotation
									End Site
									{
										OFFSET 0.000000 12.208862 0.000000
									}
								}
							}
						}
						JOINT newVegas:Jowel
						{
							OFFSET 0.000000 -7.458206 6.864100
							CHANNELS 3 Xrotation Yrotation Zrotation
							End Site
							{
								OFFSET 0.000000 19.849884 0.000000
							}
						}
					}
				}
				JOINT newVegas:LeftShoulder
				{
					OFFSET 15.263000 10.923401 -0.547700
					CHANNELS 3 Xrotation Yrotation Zrotation
					JOINT newVegas:LeftArm
					{
						OFFSET 25.438599 -2.830597 -13.032500
						CHANNELS 3 Xrotation Yrotation Zrotation
						JOINT newVegas:LeftForeArm
						{
							OFFSET 29.960503 0.000000 0.000000
							CHANNELS 3 Xrotation Yrotation Zrotation
							JOINT newVegas:LeftHand
							{
								OFFSET 27.849251 0.000000 0.000000
								CHANNELS 3 Xrotation Yrotation Zrotation
								JOINT newVegas:LeftHandThumb1
								{
									OFFSET 4.487587 -3.305161 6.305391
									CHANNELS 3 Xrotation Yrotation Zrotation
									JOINT newVegas:LeftHandThumb2
									{
										OFFSET 5.480453 -3.164139 3.164143
										CHANNELS 3 Xrotation Yrotation Zrotation
										JOINT newVegas:LeftHandThumb3
										{
											OFFSET 5.159721 -2.978973 2.978967
											CHANNELS 3 Xrotation Yrotation Zrotation
											End Site
											{
												OFFSET 2.494507 5.926697 1.738678
											}
										}
									}
								}
								JOINT newVegas:LeftHandIndex1
								{
									OFFSET 18.578728 -0.527832 5.208049
									CHANNELS 3 Xrotation Yrotation Zrotation
									JOINT newVegas:LeftHandIndex2
									{
										OFFSET 3.192009 0.000000 0.000000
										CHANNELS 3 Xrotation Yrotation Zrotation
										JOINT newVegas:LeftHandIndex3
										{
											OFFSET 3.835129 0.000000 0.000000
											CHANNELS 3 Xrotation Yrotation Zrotation
											End Site
											{
												OFFSET -0.034599 3.816971 0.371180
											}
										}
									}
								}
								JOINT newVegas:LeftHandMiddle1
								{
									OFFSET 18.476105 0.000000 0.000000
									CHANNELS 3 Xrotation Yrotation Zrotation
									JOINT newVegas:LeftHandMiddle2
									{
										OFFSET 3.324875 0.000000 0.000000
										CHANNELS 3 Xrotation Yrotation Zrotation
										JOINT newVegas:LeftHandMiddle3
										{
											OFFSET 4.596550 0.000000 0.000000
											CHANNELS 3 Xrotation Yrotation Zrotation
											End Site
											{
												OFFSET 0.057701 4.578827 0.399218
											}
										}
									}
								}
								JOINT newVegas:LeftHandRing1
								{
									OFFSET 17.732719 0.121887 -4.201567
									CHANNELS 3 Xrotation Yrotation Zrotation
									JOINT newVegas:LeftHandRing2
									{
										OFFSET 2.733170 0.000000 0.000000
										CHANNELS 3 Xrotation Yrotation Zrotation
										JOINT newVegas:LeftHandRing3
										{
											OFFSET 3.178268 0.000000 0.000000
											CHANNELS 3 Xrotation Yrotation Zrotation
											End Site
											{
												OFFSET 0.119102 3.170624 0.185394
											}
										}
									}
								}
								JOINT newVegas:LeftHandPinky1
								{
									OFFSET 15.989624 -0.606689 -7.535461
									CHANNELS 3 Xrotation Yrotation Zrotation
									JOINT newVegas:LeftHandPinky2
									{
										OFFSET 2.538986 0.000000 0.000000
										CHANNELS 3 Xrotation Yrotation Zrotation
										JOINT newVegas:LeftHandPinky3
										{
											OFFSET 2.593102 0.000000 0.000000
											CHANNELS 3 Xrotation Yrotation Zrotation
											End Site
											{
												OFFSET -0.150902 2.584198 0.152708
											}
										}
									}
								}
							}
							JOINT newVegas:Left_Sleeve
							{
								OFFSET 0.267448 -0.649796 0.577675
								CHANNELS 3 Xrotation Yrotation Zrotation
								End Site
								{
									OFFSET 0.000000 15.991241 0.000000
								}
							}
							JOINT newVegas:Left_CapeC
							{
								OFFSET 15.715958 -8.608795 -6.935905
								CHANNELS 3 Xrotation Yrotation Zrotation
								JOINT newVegas:Left_CapeC1
								{
									OFFSET 0.000000 -8.688499 0.000000
									CHANNELS 3 Xrotation Yrotation Zrotation
									End Site
									{
										OFFSET 0.000000 8.688499 0.000000
									}
								}
							}
						}
						JOINT newVegas:Left_CapeB
						{
							OFFSET 26.118385 -8.608795 -7.079235
							CHANNELS 3 Xrotation Yrotation Zrotation
							JOINT newVegas:Left_CapeB1
							{
								OFFSET 0.000000 -8.688499 0.000000
								CHANNELS 3 Xrotation Yrotation Zrotation
								End Site
								{
									OFFSET 0.000000 8.688499 0.000000
								}
							}
						}
						JOINT newVegas:Left_CapeA
						{
							OFFSET 5.115639 -8.608795 -10.395809
							CHANNELS 3 Xrotation Yrotation Zrotation
							JOINT newVegas:Left_CapeA1
							{
								OFFSET 0.000000 -8.688499 0.000000
								CHANNELS 3 Xrotation Yrotation Zrotation
								End Site
								{
									OFFSET 0.000000 8.688499 0.000000
								}
							}
						}
					}
				}
				JOINT newVegas:RightShoulder
				{
					OFFSET -15.263000 10.923401 -0.547700
					CHANNELS 3 Xrotation Yrotation Zrotation
					JOINT newVegas:RightArm
					{
						OFFSET -25.438599 -2.830597 -13.032500
						CHANNELS 3 Xrotation Yrotation Zrotation
						JOINT newVegas:RightForeArm
						{
							OFFSET -29.960503 0.000000 0.000000
							CHANNELS 3 Xrotation Yrotation Zrotation
							JOINT newVegas:RightHand
							{
								OFFSET -27.849251 0.000000 0.000000
								CHANNELS 3 Xrotation Yrotation Zrotation
								JOINT newVegas:RightHandThumb1
								{
									OFFSET -4.487587 -3.305161 6.305391
									CHANNELS 3 Xrotation Yrotation Zrotation
									JOINT newVegas:RightHandThumb2
									{
										OFFSET -5.480453 -3.164139 3.164143
										CHANNELS 3 Xrotation Yrotation Zrotation
										JOINT newVegas:RightHandThumb3
										{
											OFFSET -5.159721 -2.978973 2.978967
											CHANNELS 3 Xrotation Yrotation Zrotation
											End Site
											{
												OFFSET -2.494507 5.926697 1.738678
											}
										}
									}
								}
								JOINT newVegas:RightHandIndex1
								{
									OFFSET -18.578728 -0.527832 5.208049
									CHANNELS 3 Xrotation Yrotation Zrotation
									JOINT newVegas:RightHandIndex2
									{
										OFFSET -3.192009 0.000000 0.000000
										CHANNELS 3 Xrotation Yrotation Zrotation
										JOINT newVegas:RightHandIndex3
										{
											OFFSET -3.835129 0.000000 0.000000
											CHANNELS 3 Xrotation Yrotation Zrotation
											End Site
											{
												OFFSET 0.034599 3.816971 0.371180
											}
										}
									}
								}
								JOINT newVegas:RightHandMiddle1
								{
									OFFSET -18.476105 0.000000 0.000000
									CHANNELS 3 Xrotation Yrotation Zrotation
									JOINT newVegas:RightHandMiddle2
									{
										OFFSET -3.324875 0.000000 0.000000
										CHANNELS 3 Xrotation Yrotation Zrotation
										JOINT newVegas:RightHandMiddle3
										{
											OFFSET -4.596550 0.000000 0.000000
											CHANNELS 3 Xrotation Yrotation Zrotation
											End Site
											{
												OFFSET -0.057701 4.578827 0.399218
											}
										}
									}
								}
								JOINT newVegas:RightHandRing1
								{
									OFFSET -17.732719 0.121887 -4.201567
									CHANNELS 3 Xrotation Yrotation Zrotation
									JOINT newVegas:RightHandRing2
									{
										OFFSET -2.733170 0.000000 0.000000
										CHANNELS 3 Xrotation Yrotation Zrotation
										JOINT newVegas:RightHandRing3
										{
											OFFSET -3.178268 0.000000 0.000000
											CHANNELS 3 Xrotation Yrotation Zrotation
											End Site
											{
												OFFSET -0.119102 3.170624 0.185394
											}
										}
									}
								}
								JOINT newVegas:RightHandPinky1
								{
									OFFSET -15.989624 -0.606689 -7.535461
									CHANNELS 3 Xrotation Yrotation Zrotation
									JOINT newVegas:RightHandPinky2
									{
										OFFSET -2.538986 0.000000 0.000000
										CHANNELS 3 Xrotation Yrotation Zrotation
										JOINT newVegas:RightHandPinky3
										{
											OFFSET -2.593102 0.000000 0.000000
											CHANNELS 3 Xrotation Yrotation Zrotation
											End Site
											{
												OFFSET 0.150902 2.584198 0.152708
											}
										}
									}
								}
							}
							JOINT newVegas:Right_CapeC
							{
								OFFSET -15.715958 -8.608795 -6.935905
								CHANNELS 3 Xrotation Yrotation Zrotation
								JOINT newVegas:Right_CapeC1
								{
									OFFSET 0.000000 -8.688499 0.000000
									CHANNELS 3 Xrotation Yrotation Zrotation
									End Site
									{
										OFFSET 0.000000 8.688499 0.000000
									}
								}
							}
							JOINT newVegas:Right_Sleeve
							{
								OFFSET -0.267448 -0.649994 0.577675
								CHANNELS 3 Xrotation Yrotation Zrotation
								End Site
								{
									OFFSET 0.000000 15.991302 0.000000
								}
							}
						}
						JOINT newVegas:Right_CapeA
						{
							OFFSET -5.115540 -8.608795 -10.395824
							CHANNELS 3 Xrotation Yrotation Zrotation
							JOINT newVegas:Right_CapeA1
							{
								OFFSET 0.000000 -8.688499 0.000000
								CHANNELS 3 Xrotation Yrotation Zrotation
								End Site
								{
									OFFSET 0.000000 8.688499 0.000000
								}
							}
						}
						JOINT newVegas:Right_CapeB
						{
							OFFSET -26.118187 -8.608795 -7.079266
							CHANNELS 3 Xrotation Yrotation Zrotation
							JOINT newVegas:Right_CapeB1
							{
								OFFSET 0.000000 -8.688499 0.000000
								CHANNELS 3 Xrotation Yrotation Zrotation
								End Site
								{
									OFFSET 0.000000 8.688499 0.000000
								}
							}
						}
					}
				}
				JOINT newVegas:Left_Collar
				{
					OFFSET 18.625099 8.655502 8.828100
					CHANNELS 3 Xrotation Yrotation Zrotation
					JOINT newVegas:Left_Collar1
					{
						OFFSET 14.783401 10.540405 -1.259500
						CHANNELS 3 Xrotation Yrotation Zrotation
						End Site
						{
							OFFSET 0.000000 18.199875 0.000000
						}
					}
				}
				JOINT newVegas:Collar_Back
				{
					OFFSET 0.000000 15.630707 -20.132601
					CHANNELS 3 Xrotation Yrotation Zrotation
					End Site
					{
						OFFSET 0.000000 22.523010 0.000000
					}
				}
				JOINT newVegas:Left_Peck
				{
					OFFSET 17.239599 -5.132599 25.482599
					CHANNELS 3 Xrotation Yrotation Zrotation
					End Site
					{
						OFFSET 0.000000 22.523010 0.000000
					}
				}
				JOINT newVegas:Right_Peck
				{
					OFFSET -17.239599 -5.132202 25.482599
					CHANNELS 3 Xrotation Yrotation Zrotation
					End Site
					{
						OFFSET 0.000000 22.523010 0.000000
					}
				}
				JOINT newVegas:Right_Collar
				{
					OFFSET -18.625099 8.655792 8.828100
					CHANNELS 3 Xrotation Yrotation Zrotation
					JOINT newVegas:Right_Collar1
					{
						OFFSET -14.783401 10.539993 -1.259500
						CHANNELS 3 Xrotation Yrotation Zrotation
						End Site
						{
							OFFSET 0.000000 18.199631 0.000000
						}
					}
				}
			}
		}
		JOINT newVegas:Belly
		{
			OFFSET 0.000000 -6.540398 9.014299
			CHANNELS 3 Xrotation Yrotation Zrotation
			End Site
			{
				OFFSET 0.000000 11.566666 0.000000
			}
		}
	}
	JOINT newVegas:ElvisFacialAnim_Joint
	{
		OFFSET 1.000000 -95.330101 -8.825800
		CHANNELS 3 Xrotation Yrotation Zrotation
		End Site
		{
			OFFSET 0.000000 35.315800 0.000000
		}
	}
}
MOTION
Frames: 4
Frame Time: 0.033333
0.699776 95.261032 4.047788 -3.741122 2.262528 -2.684033 0.000000 0.000000 -0.000000 -14.964176 13.503429 12.520591 20.413636 1.789254 4.640045 -2.577923 1.111182 -9.507331 0.000000 0.000000 -0.000000 0.000000 -0.000000 0.000001 4.366656 -10.110475 2.838513 4.870168 -9.673565 -3.267164 -4.784289 -1.880456 4.146733 -0.000000 0.000000 0.000000 -0.000000 -0.000002 -0.000000 3.312568 1.522295 2.147366 1.151890 0.339456 1.552798 1.126014 0.361544 1.555886 2.249508 -0.041716 0.188040 2.249507 -0.041718 0.188038 0.000001 -0.000000 0.000000 2.249578 -0.041715 0.188039 2.249502 -0.041718 0.188039 0.000001 0.000000 0.000000 0.000001 -0.000000 0.000000 1.049452 -17.442070 -12.319430 3.916259 -19.989247 -69.765239 0.000011 -1.459360 0.000002 -33.230393 -1.364831 -6.186617 -0.663002 2.160320 4.832506 11.853550 25.421617 17.058329 0.000001 -0.000001 -0.000006 0.019864 -0.969578 -7.593530 0.267872 1.752891 -17.375704 0.000000 0.000000 -0.000001 -0.076310 2.665774 -15.696852 0.268785 1.755799 -17.405503 -0.000000 -0.000000 -0.000004 0.136907 3.641766 -21.133531 0.386627 2.094787 -20.911893 0.000000 -0.000001 0.000000 0.927726 5.555934 -27.128046 0.268797 1.755829 -17.405878 0.000001 -0.000004 0.000003 -0.000001 0.000000 0.000001 -0.000001 0.000000 0.000001 -0.000002 0.000001 0.000001 -0.000001 0.000000 0.000001 -0.000001 0.000000 0.000000 -0.000001 0.000000 0.000001 -0.000002 -0.000000 0.000000 1.203182 15.343660 14.705969 13.158862 27.555121 58.785164 0.000001 6.693734 0.000002 -20.179080 -0.514085 6.782792 -1.665239 -0.174475 -4.219042 12.710916 -29.825332 -16.130936 -0.000002 -0.000003 -0.000001 0.038573 1.262300 6.823723 0.213724 -1.396039 17.407009 -0.000004 0.000001 -0.000001 -0.136224 -2.205098 14.998882 0.214446 -1.398340 17.436879 0.000004 -0.000001 -0.000001 0.030613 -3.075751 20.451024 0.308448 -1.668281 20.948544 0.000000 0.000001 -0.000003 0.748885 -4.885247 26.473762 0.214454 -1.398372 17.437246 0.000002 0.000005 0.000003 0.000004 0.000000 -0.000000 0.000004 0.000000 -0.000000 0.000004 0.000000 -0.000000 0.000002 -0.000001 -0.000000 0.000002 -0.000001 -0.000000 0.000002 -0.000001 -0.000000 0.000002 -0.000001 -0.000000 -0.000000 -0.000000 -0.000000 -0.000000 -0.000000 -0.000000 -0.000000 -0.000000 -0.000000 -0.000000 -0.000000 -0.000000 -0.000000 -0.000000 -0.000000 -0.000000 -0.000000 -0.000000 -0.000000 -0.000000 -0.000000 -0.000000 -0.000000 0.000000 0.000000 0.000000 -0.000000 
0.688111 95.256546 4.007788 -3.747039 2.293391 -2.686930 -0.000000 -0.000000 0.000000 -15.006079 13.512383 12.551747 20.399260 1.726640 4.634054 -2.524417 1.110094 -9.536193 0.000000 -0.000002 -0.000000 0.000000 -0.000002 0.000001 4.299715 -10.040252 2.865109 4.958090 -9.729252 -3.287284 -4.804217 -1.935212 4.140847 0.000000 -0.000002 0.000000 -0.000000 0.000002 -0.000000 3.313719 1.523564 2.150164 1.154434 0.341012 1.558759 1.128527 0.362997 1.561856 2.264799 -0.042219 0.185264 2.264799 -0.042219 0.185264 0.000000 -0.000000 0.000000 2.264800 -0.042218 0.185263 2.264871 -0.042222 0.185265 -0.000000 0.000000 -0.000000 0.000000 -0.000000 0.000000 1.051193 -17.447399 -12.307537 3.859484 -20.150255 -69.702716 -0.000008 -1.523649 -0.000004 -33.328892 -1.378148 -6.242297 -0.960392 2.055272 4.998224 11.884019 25.455579 16.956686 0.000001 -0.000000 -0.000003 -0.142082 -0.985240 -9.215600 0.320952 1.914220 -19.034713 0.000001 -0.000001 0.000001 -0.099001 2.579341 -15.641145 0.268336 1.754369 -17.390896 -0.000000 0.000000 0.000001 0.125662 3.606911 -21.005267 0.386457 2.094336 -20.907204 -0.000001 0.000001 0.000003 0.886954 5.507649 -26.997120 0.269373 1.757673 -17.424771 -0.000001 -0.000003 -0.000002 0.000003 -0.000000 -0.000001 0.000003 -0.000000 -0.000001 0.000002 0.000000 -0.000001 0.000002 -0.000001 -0.000001 0.000002 0.000000 -0.000001 0.000002 -0.000001 -0.000001 0.000000 0.000000 -0.000001 1.207315 15.357832 14.682407 13.111367 27.833105 58.737516 0.000002 6.839433 0.000007 -20.354956 -0.441418 6.854242 -1.666428 -0.121377 -4.189624 12.714103 -29.826347 -16.122045 0.000000 -0.000000 -0.000000 0.035116 1.267863 6.851901 0.213950 -1.396736 17.416035 -0.000001 -0.000000 -0.000002 -0.138204 -2.202427 15.051973 0.214682 -1.399078 17.446250 -0.000004 0.000001 -0.000001 0.035153 -3.088893 20.472964 0.309230 -1.670325 20.975448 -0.000001 0.000002 0.000001 0.748972 -4.885437 26.522173 0.215044 -1.400223 17.461302 0.000000 0.000001 0.000004 0.000004 0.000000 0.000001 0.000004 0.000000 0.000001 0.000004 0.000000 0.000001 0.000001 0.000000 0.000001 0.000001 0.000000 0.000000 0.000001 0.000000 0.000001 0.000001 -0.000000 0.000000 0.000000 -0.000000 0.000000 0.000000 -0.000000 0.000000 0.000000 -0.000000 0.000000 0.000000 -0.000000 0.000000 0.000000 -0.000000 0.000000 0.000000 -0.000000 0.000000 0.000000 -0.000000 0.000000 -0.000000 0.000000 0.000000 -0.000000 -0.000000 0.000000 
0.668022 95.255013 3.966429 -3.760420 2.353884 -2.691226 -0.000000 0.000000 0.000000 -15.042491 13.525013 12.587339 20.355810 1.625621 4.638601 -2.444288 1.110398 -9.577253 -0.000000 0.000000 -0.000000 -0.000000 -0.000001 -0.000001 4.278203 -9.892162 2.932585 4.978013 -9.773849 -3.326354 -4.794832 -2.104595 4.118574 0.000000 0.000000 -0.000000 -0.000000 -0.000001 0.000000 3.313701 1.525659 2.152691 1.155621 0.344064 1.563516 1.129687 0.365946 1.566621 2.290482 -0.043022 0.180927 2.290488 -0.043022 0.180928 -0.000000 -0.000000 -0.000000 2.290551 -0.043024 0.180926 2.290405 -0.043023 0.180926 0.000001 -0.000000 -0.000000 -0.000000 -0.000000 -0.000000 1.054306 -17.464102 -12.287680 3.781838 -20.299795 -69.620016 -0.000005 -1.592719 0.000009 -33.424685 -1.375034 -6.313420 -1.316675 1.939155 5.207656 11.923050 25.508849 16.836946 0.000002 -0.000000 -0.000003 -0.331345 -1.019044 -10.948716 0.379505 2.076075 -20.716298 -0.000000 0.000000 0.000001 -0.128577 2.470002 -15.612161 0.267773 1.752574 -17.372508 -0.000000 0.000000 0.000001 0.108489 3.554769 -20.848495 0.386271 2.093862 -20.902242 -0.000000 -0.000001 0.000002 0.845005 5.457713 -26.840439 0.269379 1.757693 -17.424989 0.000000 -0.000003 -0.000004 -0.000001 -0.000000 0.000000 -0.000001 -0.000000 0.000000 -0.000002 -0.000000 0.000000 0.000002 0.000001 0.000001 0.000002 0.000001 0.000000 0.000002 0.000001 0.000001 0.000000 0.000002 0.000000 1.211357 15.376103 14.659632 13.080815 28.132011 58.710114 0.000006 6.984269 0.000004 -20.564527 -0.332913 6.886560 -1.637357 -0.061767 -4.138050 12.706536 -29.823973 -16.143282 0.000001 -0.000002 -0.000001 0.031993 1.261295 6.909388 0.212039 -1.390666 17.338012 0.000001 0.000000 0.000000 -0.139951 -2.200719 15.104869 0.214353 -1.398035 17.432963 0.000001 0.000000 0.000001 0.040153 -3.103796 20.506700 0.309379 -1.670720 20.980634 0.000001 -0.000001 0.000003 0.743891 -4.877392 26.589295 0.213468 -1.395197 17.396449 -0.000001 0.000003 -0.000001 0.000004 0.000000 0.000001 0.000004 0.000000 0.000001 0.000004 0.000000 0.000001 -0.000004 0.000000 0.000000 -0.000004 0.000000 0.000000 -0.000004 0.000000 0.000000 -0.000004 -0.000000 0.000000 -0.000000 0.000000 -0.000000 -0.000000 0.000000 -0.000000 -0.000000 0.000000 -0.000000 -0.000000 0.000000 -0.000000 -0.000000 0.000000 -0.000000 -0.000000 0.000000 -0.000000 -0.000000 0.000000 -0.000000 -0.000000 -0.000000 0.000000 -0.000000 0.000000 0.000000 
0.638388 95.256500 3.923282 -3.786150 2.441076 -2.693600 0.000000 -0.000000 0.000000 -15.063540 13.539568 12.624162 20.279221 1.493704 4.651622 -2.336602 1.110824 -9.629575 -0.000000 0.000000 -0.000000 -0.000000 0.000001 0.000000 4.293395 -9.686891 3.031031 4.954139 -9.796808 -3.378535 -4.767146 -2.374774 4.079042 -0.000000 -0.000002 0.000000 -0.000001 0.000004 -0.000001 3.314553 1.528316 2.152622 1.158501 0.348427 1.564104 1.132552 0.370246 1.567212 2.327664 -0.044688 0.176005 2.327666 -0.044686 0.176006 -0.000000 -0.000000 -0.000000 2.327663 -0.044686 0.176006 2.327812 -0.044691 0.176009 0.000001 -0.000001 0.000000 -0.000000 -0.000000 0.000000 1.056462 -17.475362 -12.273889 3.681248 -20.414816 -69.507488 0.000011 -1.656208 -0.000008 -33.516162 -1.357353 -6.382614 -1.652346 1.828401 5.411454 11.963741 25.576058 16.724739 0.000002 -0.000003 -0.000005 -0.517726 -1.082143 -12.434534 0.438326 2.225298 -22.283603 -0.000000 -0.000000 0.000002 -0.158098 2.363748 -15.615226 0.267247 1.750899 -17.355330 0.000000 -0.000000 0.000002 0.089944 3.499683 -20.720965 0.386107 2.093441 -20.897818 0.000001 -0.000001 0.000003 0.808956 5.415286 -26.699286 0.269146 1.756958 -17.417437 -0.000000 -0.000005 -0.000001 0.000000 -0.000001 -0.000001 0.000000 -0.000001 -0.000001 -0.000000 -0.000000 -0.000001 0.000004 0.000000 0.000000 0.000004 0.000001 0.000000 0.000004 0.000000 0.000000 0.000002 0.000001 0.000000 1.213805 15.399708 14.646555 13.063331 28.433263 58.696351 -0.000005 7.115852 -0.000001 -20.767889 -0.197207 6.868028 -1.596456 -0.000217 -4.080631 12.694211 -29.820100 -16.177919 0.000002 0.000000 0.000001 0.028730 1.256205 6.964031 0.209840 -1.383561 17.246711 -0.000000 0.000000 0.000000 -0.138329 -2.209458 15.135161 0.214138 -1.397337 17.423809 0.000001 0.000002 -0.000003 0.042687 -3.112168 20.544053 0.308926 -1.669536 20.965085 -0.000001 0.000001 0.000001 0.739507 -4.870491 26.647836 0.211201 -1.387956 17.303109 -0.000001 0.000002 0.000000 -0.000000 0.000000 0.000000 -0.000000 0.000000 0.000000 -0.000000 0.000000 0.000000 -0.000002 0.000001 0.000001 -0.000002 0.000001 0.000001 -0.000002 0.000001 0.000001 -0.000002 0.000001 0.000001 -0.000000 -0.000001 -0.000000 -0.000000 -0.000001 -0.000000 -0.000000 -0.000001 -0.000000 -0.000000 -0.000001 -0.000000 -0.000000 -0.000001 -0.000000 -0.000000 -0.000001 -0.000000 -0.000000 -0.000001 -0.000000 0.000000 0.000000 -0.000000 0.000000 -0.000000 0.000000 
